<?xml version="1.0" encoding="UTF-8" standalone="no"?>
<!-- Created with Inkscape (http://www.inkscape.org/) -->

<svg
   xmlns:dc="http://purl.org/dc/elements/1.1/"
   xmlns:cc="http://creativecommons.org/ns#"
   xmlns:rdf="http://www.w3.org/1999/02/22-rdf-syntax-ns#"
   xmlns:svg="http://www.w3.org/2000/svg"
   xmlns="http://www.w3.org/2000/svg"
   xmlns:sodipodi="http://sodipodi.sourceforge.net/DTD/sodipodi-0.dtd"
   xmlns:inkscape="http://www.inkscape.org/namespaces/inkscape"
   width="156.84212mm"
   height="156.56871mm"
   viewBox="0 0 555.73978 554.77102"
   id="svg4210"
   version="1.1"
   inkscape:version="0.91 r"
   sodipodi:docname="EGF-logo.svg">
  <defs
     id="defs4212" />
  <sodipodi:namedview
     id="base"
     pagecolor="#ffffff"
     bordercolor="#666666"
     borderopacity="1.0"
     inkscape:pageopacity="0.0"
     inkscape:pageshadow="2"
     inkscape:zoom="0.7"
     inkscape:cx="116.41105"
     inkscape:cy="190.72215"
     inkscape:document-units="px"
     inkscape:current-layer="layer1"
     showgrid="false"
     fit-margin-top="0.1"
     fit-margin-left="0.1"
     fit-margin-right="0.1"
     fit-margin-bottom="0.1"
     inkscape:window-width="2495"
     inkscape:window-height="1416"
     inkscape:window-x="65"
     inkscape:window-y="24"
     inkscape:window-maximized="1" />
  <metadata
     id="metadata4215">
    <rdf:RDF>
      <cc:Work
         rdf:about="">
        <dc:format>image/svg+xml</dc:format>
        <dc:type
           rdf:resource="http://purl.org/dc/dcmitype/StillImage" />
        <dc:title></dc:title>
      </cc:Work>
    </rdf:RDF>
  </metadata>
  <g
     inkscape:label="Layer 1"
     inkscape:groupmode="layer"
     id="layer1"
     transform="translate(-85.534424,-43.686458)">
    <path
       style="fill:#3c3c3c;fill-opacity:1"
       d="m 352.00998,597.86699 c -47.23262,-2.194 -91.85873,-15.5556 -131.52889,-39.3816 -56.68594,-34.0456 -99.4309,-87.1976 -120.36986,-149.6761 -9.07075,-27.0656 -13.46049,-52.4509 -14.13581,-81.7455 -0.89957,-39.0219 5.17744,-73.1596 19.46581,-109.3494 23.42496,-59.331 68.29959,-109.9208 125.39044,-141.360101 22.69086,-12.4956 51.44178,-23.0001 77.14039,-28.1843 l 4.92927,-0.9943 9.327,9.5024 9.327,9.5024 18.40542,-0.3285 18.40542,-0.3284 11.56706,-10.7414 11.56705,-10.7414 3.18885,0.392 c 50.48036,6.2053 95.53399,24.1745 135.21433,53.929 80.06007,60.033401 121.48273,158.142101 108.74309,257.555801 -8.56058,66.8024 -41.37772,128.3914 -92.16863,172.976 -41.77268,36.6683 -93.26173,59.9356 -147.9801,66.8703 -16.01096,2.0292 -32.25727,2.7642 -46.48784,2.1031 z m -56.57612,-131.7732 c 1.48118,-1.1525 2.96713,-6.2507 3.37916,-11.5938 0.37873,-4.9112 -0.7178,-10.4987 -2.65124,-13.5097 l -0.89555,-1.3946 -46.47354,0 -46.47356,0 0,-28.5125 0,-28.5126 32.78012,0 32.78012,0 0.95853,-1.4629 c 0.52719,-0.8046 1.43401,-3.0985 2.01516,-5.0976 1.30039,-4.4732 0.89765,-13.3791 -0.81343,-17.9879 l -1.12658,-3.0344 -33.60688,-0.1603 -33.60688,-0.1603 0,-31.601 0,-31.6011 33.59682,-0.1603 33.59681,-0.1603 -0.16697,-5.8884 c -0.15435,-5.4441 0.7598,-17.6659 1.56472,-20.9196 l 0.34502,-1.3946 -50.8939,0 -50.8939,0 0,101.9633 0,101.9634 62.79507,0 c 49.29174,0 63.00922,-0.1667 63.7909,-0.7748 z m 200.06859,-41.6841 0,-42.4589 32.80714,0 c 28.9081,0 32.92215,-0.115 33.7749,-0.9678 3.20907,-3.2091 3.83589,-18.0594 1.01198,-23.9753 l -1.40285,-2.9389 -33.25054,-0.1603 -33.25055,-0.1603 -0.16063,-31.4568 -0.16065,-31.4568 47.09745,0 47.09744,0 0.91024,-1.7602 c 2.6514,-5.1272 2.86958,-18.0079 0.39276,-23.1883 l -1.40768,-2.9442 -53.92802,0 -53.92802,0 0.44532,2.9442 c 0.24492,1.6194 0.65266,6.0125 0.9061,9.7625 0.82,12.1335 -0.38187,13.324 -13.45246,13.3255 l -8.21285,0.001 0,88.9467 0,88.9468 17.35546,0 17.35546,0 0,-42.4589 z m -129.85603,-11.7726 c 21.2499,-14.1563 55.09576,-36.9413 55.65737,-37.4685 0.60796,-0.5708 -46.05958,-69.9466 -48.11752,-71.5313 -3.09843,-2.386 -5.18032,-1.74 -14.66382,4.55 -9.32185,6.1828 -10.92288,7.9492 -10.35834,11.428 0.17921,1.1044 4.33389,7.8722 9.67302,15.7571 5.14739,7.6017 9.35888,13.9092 9.35888,14.0167 0,0.4458 -10.70578,-2.2349 -14.94601,-3.7424 -21.80787,-7.7532 -38.21958,-27.2113 -43.03393,-51.0219 -1.46711,-7.2559 -0.99851,-21.8585 0.9272,-28.8936 2.52031,-9.2074 7.69285,-19.0921 14.0284,-26.808 1.61564,-1.9677 1.62294,-2.0145 0.31436,-2.0145 -1.80256,0 -6.86645,-2.6301 -8.53416,-4.4324 -0.74096,-0.8008 -3.48776,-5.0821 -6.10399,-9.5139 -2.61623,-4.4319 -4.83473,-8.1399 -4.93,-8.24 -0.38317,-0.4029 -8.44261,9.8224 -11.76435,14.9258 -14.34217,22.035 -19.17673,49.462 -13.24366,75.1328 8.41645,36.4156 37.12519,65.2637 73.472,73.8288 2.45909,0.5795 4.3311,1.2801 4.16002,1.5569 -0.17109,0.2768 -5.44742,4.0031 -11.72519,8.2806 -6.27776,4.2775 -11.84556,8.3933 -12.37286,9.1461 -2.10506,3.0054 -1.34467,5.2113 5.08467,14.7505 5.07838,7.5348 6.38984,9.0838 8.21285,9.7009 1.19319,0.4039 2.72729,0.5893 3.40911,0.4119 0.68182,-0.1773 7.655,-4.5962 15.49595,-9.8196 z m 108.07975,-138.0732 c -3.27358,-44.4943 -36.62329,-80.8723 -81.42673,-88.8207 -9.08547,-1.6119 -24.44129,-1.5133 -33.78116,0.2168 -6.44844,1.1944 -17.508,4.4068 -18.46431,5.3631 -0.30058,0.3006 6.45483,29.3406 6.96258,29.9306 0.0714,0.083 2.35684,-0.6619 5.07874,-1.6553 20.15327,-7.355 42.0062,-4.8254 60.24604,6.9739 5.33598,3.4519 12.76433,10.4267 16.90249,15.8706 6.62228,8.7118 12.09399,22.5934 13.27192,33.6706 l 0.44491,4.1839 15.59368,0 15.59367,0 -0.42183,-5.7335 z m -140.64412,-46.5069 c 3.70991,-1.5071 6.21907,-4.4099 6.22425,-7.2008 0.002,-0.8871 -2.01004,-10.0649 -4.4704,-20.3951 -3.41991,-14.359 -4.31706,-19.03 -3.80956,-19.8346 1.00988,-1.601 29.44034,-21.6773 31.21097,-22.0398 1.7435,-0.3569 28.86416,6.0464 30.15846,7.1206 0.58349,0.4843 0.83343,2.342 0.83343,6.1943 0,5.0253 0.10391,5.5027 1.19779,5.5027 2.25651,0 15.44445,3.673 20.7471,5.7783 4.57877,1.8179 5.33963,1.9686 5.59067,1.1072 1.25263,-4.298 7.17536,-34.2937 7.17536,-36.3397 0,-4.7332 -1.35266,-5.9056 -19.80546,-17.1651 l -16.97659,-10.3589 -2.29245,2.0711 c -3.73614,3.3754 -8.06999,4.5193 -32.13422,8.4814 -18.91145,3.1138 -23.62709,3.6973 -28.27526,3.4988 -3.0682,-0.1311 -6.02606,-0.4423 -6.57304,-0.6916 -0.78364,-0.3573 -3.78102,3.4955 -14.13722,18.1718 -7.22851,10.2439 -13.54324,19.393 -14.03276,20.3314 -1.12279,2.1524 -1.14658,6.1925 -0.0483,8.2145 3.68576,6.7858 26.54444,45.5957 27.44595,46.5983 2.44277,2.7164 6.78323,3.0627 11.97133,0.9552 z m 21.21259,-102.7297 c 12.35045,-2.0513 23.47126,-4.0032 24.71289,-4.3376 3.29275,-0.8866 6.29,-3.1337 6.98712,-5.2384 1.16483,-3.5166 -1.82727,-13.6047 -4.88797,-16.480101 -1.39658,-1.312 -1.84616,-1.3729 -7.54293,-1.0215 -7.53577,0.4648 -24.24828,2.945201 -38.56514,5.723601 -14.31514,2.7781 -13.96304,2.4308 -13.52071,13.3368 0.17454,4.3033 0.63704,8.4215 1.02779,9.1516 0.788,1.4724 3.50302,2.4542 7.02217,2.5393 1.27127,0.031 12.41632,-1.6224 24.76678,-3.6737 z M 341.83843,96.250989 c 7.98073,-1.353 18.71742,-2.941 23.85931,-3.5289 l 9.3489,-1.0689 -2.18418,-10.7446 c -1.7914,-8.8124 -2.35797,-10.6962 -3.15052,-10.475 -0.53148,0.1483 -9.9609,0.3594 -20.95425,0.4691 -10.99336,0.1097 -19.98876,0.4214 -19.98978,0.6928 -0.003,0.8168 -3.69542,24.805 -4.06196,26.3895 -0.29985,1.2961 -0.16526,1.4256 1.14105,1.0978 0.81456,-0.2045 8.01069,-1.4788 15.99143,-2.8318 z"
       id="path4769"
       inkscape:connector-curvature="0" />
  </g>
</svg>
