<svg width="450" height="100" xmlns="http://www.w3.org/2000/svg">
 <g>
  <title>Layer 1</title>
  <metadata id="svg_5">image/svg+xml</metadata>
  <metadata id="svg_4">image/svg+xml</metadata>
  <path id="svg_3" d="m225.9843,50.10966l0,-15.92513c4.4859,-1.15323 7.80428,-5.20932 7.80428,-10.04774c0,-1.05767 -0.16025,-2.07688 -0.45368,-3.03791l9.43798,-5.44102c0.73256,0.39481 1.55774,0.63792 2.4495,0.63792c2.87406,0 5.20286,-2.32519 5.20286,-5.19479c0,-2.86855 -2.3288,-5.19478 -5.20286,-5.19478c-2.8751,0 -5.20285,2.32622 -5.20285,5.19478c0,0.04681 0.01241,0.09142 0.01462,0.13713l-9.42653,5.43271c-1.87199,-1.80779 -4.41618,-2.92363 -7.22676,-2.92363c-5.74499,0 -10.40572,4.65141 -10.40572,10.38957c0,4.83945 3.31838,8.8945 7.80428,10.04774l0,15.92513" fill="none" stroke-width="3" stroke="#000000"/>
  <line fill="none" stroke-width="3" x1="0.2243" y1="50" x2="449.77572" y2="50" id="svg_2" stroke-linejoin="round" stroke-linecap="square" stroke="#000"/>
 </g>

</svg>