<?xml version="1.0" standalone="no"?>
<!DOCTYPE svg PUBLIC "-//W3C//DTD SVG 1.1//EN" "http://www.w3.org/Graphics/SVG/1.1/DTD/svg11.dtd">
<svg viewBox="-200 0 450 100" style="background-color:#ffffff00" xmlns="http://www.w3.org/2000/svg" width="450" height="100"><defs><style>path{stroke:#000;stroke-width:3;stroke-linecap:round;stroke-linejoin:round;fill:none}</style></defs><path d="M-200 50H3.771"/><path d="M17.205 50.392h-3.376l-1.342-3.491H6.343l-1.269 3.491H1.781L7.769 35.02h3.282zm-5.714-6.082-2.118-5.704-2.076 5.704zm21.221 6.082h-3.376l-1.343-3.491h-6.144l-1.269 3.491h-3.292l5.987-15.372h3.282zm-5.715-6.082-2.118-5.704-2.076 5.704zm21.222 6.082h-3.376L43.5 46.901h-6.145l-1.268 3.491h-3.293l5.987-15.372h3.283zm-5.715-6.082-2.118-5.704-2.076 5.704z" style="text-wrap-mode:nowrap;stroke:none;fill:#000"/><path d="M-200 50H3.771M-200 50H3.771"/><path d="M46.358 50h203.771" style="transform-box:fill-box;transform-origin:50% 50%"/></svg>
