<?xml version="1.0" standalone="no"?>
<!DOCTYPE svg PUBLIC "-//W3C//DTD SVG 1.1//EN" "http://www.w3.org/Graphics/SVG/1.1/DTD/svg11.dtd">
<svg viewBox="-200 0 450 100" style="background-color:#ffffff00" xmlns="http://www.w3.org/2000/svg" width="450" height="100"><defs><style>path{stroke:#000;stroke-width:3;stroke-linecap:round;stroke-linejoin:round;fill:none}</style></defs><path d="M-200 50h450"/><circle cx="25" cy="25" r="7" style="stroke:#000;stroke-width:3;stroke-linecap:round;stroke-linejoin:round;fill:none"/><path d="m20.427 24.451.629-1.942q2.174.766 3.158 1.327-.26-2.475-.273-3.405h1.982q-.041 1.354-.314 3.391 1.408-.711 3.226-1.313l.629 1.942q-1.736.574-3.404.765.834.725 2.351 2.584l-1.64 1.162q-.793-1.08-1.873-2.939-1.012 1.928-1.778 2.939L21.507 27.8q1.586-1.955 2.27-2.584-1.764-.341-3.35-.765" style="text-wrap-mode:nowrap;stroke:none;fill:#000"/><path style="stroke-width:2px" d="M24.783 32.167s-2.503.601-2.037 1.808c.658 1.704 5.704.714 5.761 1.935.062 1.335-5.949 1.543-5.917 2.879.038 1.593 5.797-.027 6.012 1.715.141 1.144-6.213 1.059-6.219 3.298-.006 2.164 7.403-.907 5.998 1.977 0 0-1.742.804-3.712 1.72-.945.439-2.6 1.735-2.6 1.735l6.415.341"/></svg>
